<?xml version="1.0" standalone="no"?>
<!DOCTYPE svg PUBLIC "-//W3C//DTD SVG 20010904//EN"
 "http://www.w3.org/TR/2001/REC-SVG-20010904/DTD/svg10.dtd">
<svg version="1.0" xmlns="http://www.w3.org/2000/svg"
 width="4251.000000pt" height="4251.000000pt" viewBox="0 0 4251.000000 4251.000000"
 preserveAspectRatio="xMidYMid meet">
<metadata>
Created by potrace 1.14, written by Peter Selinger 2001-2017
</metadata>
<g transform="translate(0.000000,4251.000000) scale(0.100000,-0.100000)"
fill="#000000" stroke="none">
<path d="M25 26129 l5 -2574 509 -505 c280 -278 1108 -1101 1841 -1830 733
-729 1526 -1518 1764 -1754 237 -235 1025 -1019 1751 -1741 726 -723 1573
-1565 1882 -1872 309 -307 887 -882 1285 -1278 l723 -719 1505 -1 c828 -1
1509 0 1513 3 7 3 -754 764 -2814 2812 -395 393 -1340 1334 -2100 2090 -759
756 -1608 1600 -1885 1876 -277 275 -504 503 -504 507 0 3 15 21 34 39 19 18
188 184 377 370 189 185 396 386 459 448 104 102 576 562 870 850 118 115 698
682 880 860 54 52 256 250 451 440 194 190 360 353 370 362 17 16 28 6 201
-174 101 -105 210 -219 243 -253 33 -34 137 -142 230 -240 222 -231 246 -256
471 -491 106 -109 213 -221 239 -249 27 -27 138 -144 249 -259 111 -115 221
-230 246 -256 25 -26 136 -141 246 -256 111 -115 227 -236 259 -269 85 -90
227 -238 442 -461 306 -318 352 -368 347 -375 -3 -6 -120 -23 -239 -34 -27 -3
-68 -7 -90 -10 -150 -17 -467 -20 -2375 -21 -1174 -1 -2139 -2 -2144 -3 -5 0
40 -50 100 -110 139 -138 1370 -1382 1654 -1672 l216 -219 1817 0 1816 0 88
76 c174 151 219 191 338 294 66 58 206 180 310 270 105 90 206 179 225 196 19
18 109 96 200 174 91 79 194 169 230 200 79 69 295 257 374 325 33 28 71 61
86 75 35 32 69 62 150 130 36 30 72 61 80 70 8 8 60 54 115 100 178 151 199
174 182 191 -55 53 -559 543 -642 624 -425 415 -735 717 -817 796 -53 52 -232
227 -398 389 -166 162 -346 337 -399 389 -53 51 -228 222 -390 380 -161 157
-341 333 -400 390 -58 57 -238 232 -400 390 -161 157 -335 327 -386 376 -243
236 -719 702 -890 869 l-190 185 -1484 1 -1485 0 -290 -289 c-160 -159 -392
-389 -516 -511 -124 -122 -548 -542 -943 -934 -396 -391 -821 -812 -945 -934
-125 -123 -555 -549 -956 -945 -1111 -1101 -1122 -1111 -1138 -1124 -13 -11
-14 405 -14 3573 1 1972 -1 3590 -4 3595 -3 4 -39 11 -80 14 -41 3 -93 8 -115
10 -54 6 -145 14 -231 20 -40 2 -91 7 -115 10 -24 2 -80 7 -124 10 -44 3 -98
7 -120 10 -22 2 -76 7 -120 10 -44 3 -98 8 -120 10 -22 2 -75 7 -118 10 -42 3
-96 8 -120 10 -53 5 -163 14 -247 20 -36 3 -87 7 -115 10 -27 2 -81 7 -120 10
-38 3 -88 8 -110 10 -22 2 -80 7 -130 10 -49 4 -106 8 -125 10 -19 2 -71 7
-115 10 -44 3 -93 8 -110 10 -16 2 -69 7 -118 10 l-87 7 5 -2573z"/>
<path d="M23165 27458 c-75 -6 -172 -20 -222 -33 -13 -3 -31 -7 -40 -9 -10 -2
-52 -16 -93 -31 -350 -126 -529 -390 -486 -720 5 -33 8 -61 7 -62 -2 -7 44
-121 57 -143 84 -137 233 -237 467 -314 139 -46 257 -74 485 -112 54 -9 38 -6
132 -28 43 -9 80 -17 83 -17 22 2 223 -78 276 -109 99 -58 145 -117 166 -210
20 -90 13 -158 -25 -240 -50 -107 -178 -182 -367 -215 -83 -14 -316 -21 -387
-11 -206 30 -320 76 -431 176 -64 57 -157 208 -157 254 0 23 -20 25 -233 24
-197 0 -197 0 -193 -21 54 -282 215 -496 466 -622 120 -60 258 -101 411 -120
99 -13 113 -14 261 -15 397 -2 690 84 880 259 99 91 176 220 193 324 3 17 8
44 11 60 8 38 7 172 -1 227 -29 200 -140 343 -350 452 -62 32 -162 76 -190 83
-5 1 -17 5 -25 8 -14 6 -122 38 -145 43 -142 33 -281 63 -320 70 -27 4 -52 8
-55 9 -3 1 -25 5 -50 9 -79 13 -243 58 -310 84 -129 51 -196 109 -223 193 -42
129 -4 256 100 335 38 29 129 70 176 80 10 2 26 5 35 8 83 25 320 23 467 -3
184 -34 329 -147 379 -298 l16 -49 204 1 c113 0 207 3 210 5 3 3 0 26 -5 50
-6 25 -12 52 -14 62 -8 40 -54 138 -88 190 -152 228 -459 369 -825 377 -48 2
-105 3 -127 4 -22 1 -76 -1 -120 -5z"/>
<path d="M17133 27412 l-41 -3 0 -1240 0 -1239 207 0 206 0 0 446 0 446 40 33
c22 19 105 86 185 150 l144 116 36 -38 c19 -21 55 -61 80 -89 47 -53 194 -214
341 -374 48 -52 97 -106 109 -120 12 -14 61 -68 109 -120 117 -126 149 -161
288 -317 l118 -131 270 -1 269 -1 -44 46 c-25 26 -52 54 -60 63 -8 9 -61 67
-117 127 -57 61 -112 121 -124 135 -11 13 -50 55 -87 94 -37 39 -112 120 -167
179 -55 60 -111 121 -125 136 -14 15 -67 73 -119 129 -52 56 -111 119 -130
140 -20 21 -79 85 -131 142 -52 56 -121 130 -152 163 l-58 61 28 24 c15 13 54
47 87 76 61 54 178 154 274 235 29 25 63 54 75 65 37 33 108 95 155 134 24 20
53 44 65 55 11 10 139 120 284 243 144 124 262 228 262 232 0 3 -117 5 -259 5
l-260 -2 -113 -99 c-62 -54 -174 -150 -248 -213 -74 -63 -140 -119 -146 -125
-6 -5 -64 -55 -129 -110 -65 -55 -168 -143 -230 -195 -61 -52 -151 -129 -200
-170 -50 -41 -99 -84 -111 -95 -12 -11 -43 -38 -69 -60 -27 -22 -67 -57 -89
-77 -23 -21 -43 -38 -46 -38 -3 0 -5 266 -5 590 0 325 -2 590 -5 591 -17 2
-332 3 -367 1z"/>
<path d="M20576 27412 c-19 -4 -20 -5 -166 -352 -62 -146 -136 -321 -165 -390
-29 -69 -103 -244 -165 -390 -62 -146 -125 -294 -140 -330 -15 -36 -71 -168
-125 -295 -53 -126 -103 -243 -110 -260 -7 -16 -43 -102 -80 -190 -37 -88 -78
-184 -91 -213 -13 -29 -24 -55 -24 -57 0 -3 96 -5 214 -5 l213 0 20 48 c11 26
75 180 143 342 67 162 128 300 135 305 17 14 1161 14 1173 0 5 -6 40 -80 77
-165 36 -85 79 -182 94 -215 15 -33 52 -117 82 -187 l54 -128 223 0 c134 0
222 4 222 10 0 5 -13 37 -29 72 -17 35 -105 234 -197 443 -91 209 -175 398
-185 420 -22 50 -153 346 -252 570 -291 662 -420 951 -427 959 -8 8 -455 15
-494 8z m312 -512 c55 -137 231 -551 378 -887 l14 -33 -461 0 -460 0 6 23 c4
12 13 36 20 52 85 194 348 863 390 995 23 73 28 79 35 50 4 -14 39 -104 78
-200z"/>
<path d="M24880 27410 c-5 -3 -9 -562 -9 -1243 l0 -1237 207 2 207 3 0 573 0
572 55 1 c67 0 1319 0 1340 -1 13 0 15 -70 14 -575 l-2 -575 207 0 206 0 0
1241 0 1242 -175 -1 c-96 0 -189 -1 -206 -1 l-32 -1 0 -486 c0 -267 -3 -488
-6 -491 -5 -5 -1276 -8 -1381 -4 -20 1 -20 8 -20 491 0 431 -1 490 -15 491
-70 4 -384 3 -390 -1z"/>
<path d="M27343 27412 c-36 -4 -39 -7 -22 -25 6 -7 57 -79 114 -162 57 -82
120 -172 139 -200 20 -27 130 -185 245 -350 115 -165 285 -408 378 -540 l168
-240 2 -470 c1 -258 2 -476 2 -482 1 -10 49 -13 206 -13 188 0 205 1 206 18 0
9 1 222 1 472 1 413 5 494 26 510 4 3 25 32 48 65 22 33 150 218 284 410 343
492 365 524 470 675 51 74 124 179 162 232 37 53 68 98 68 100 0 2 -407 1
-447 -1 -6 -1 -34 -34 -60 -73 -442 -656 -617 -918 -673 -1009 -68 -109 -74
-113 -94 -69 -22 47 -206 326 -522 790 -55 80 -126 185 -159 234 -33 48 -67
97 -76 109 -15 19 -26 20 -225 21 -115 1 -224 0 -241 -2z"/>
<path d="M30488 27410 c-23 -6 -20 1 -212 -455 -118 -281 -318 -750 -331 -780
-8 -16 -25 -57 -38 -90 -27 -65 -80 -189 -322 -760 -86 -203 -159 -376 -162
-382 -4 -10 42 -13 209 -13 l215 0 18 43 c10 23 28 65 40 92 12 28 70 167 129
310 l108 260 586 0 587 0 15 -30 c8 -17 25 -53 37 -80 67 -153 147 -336 199
-457 l59 -138 223 0 223 0 -6 23 c-4 12 -20 49 -35 82 -15 33 -42 94 -60 135
-18 41 -45 103 -61 138 -16 35 -29 65 -29 68 0 2 -16 38 -35 80 -19 41 -35 77
-35 79 0 2 -15 36 -34 77 -19 40 -57 127 -86 193 -29 66 -67 153 -86 193 -19
41 -34 76 -34 79 0 2 -11 28 -24 56 -13 29 -77 171 -141 317 -64 146 -122 279
-130 295 -7 17 -34 77 -59 135 -26 58 -53 117 -62 132 -8 15 -14 29 -13 30 1
2 -7 23 -19 48 -11 25 -46 104 -77 175 -31 72 -60 134 -65 139 -9 9 -454 15
-492 6z m289 -460 c24 -63 48 -124 54 -135 5 -11 81 -189 170 -395 89 -206
167 -390 175 -407 l14 -33 -461 0 c-435 0 -461 1 -456 18 3 9 62 157 132 327
105 259 203 511 292 755 l16 45 10 -30 c5 -17 29 -82 54 -145z"/>
<path d="M32373 27412 l-42 -3 1 -1240 0 -1239 208 0 208 0 1 463 c0 254 0
472 0 483 l1 21 460 1 c253 0 472 3 487 6 16 3 48 8 73 11 122 16 287 80 382
148 200 142 293 350 284 637 -3 93 -9 143 -26 195 -93 297 -357 479 -739 511
-83 7 -1214 12 -1298 6z m1286 -351 c127 -24 208 -65 274 -136 129 -138 116
-443 -24 -570 -40 -36 -126 -82 -169 -90 -12 -2 -29 -6 -38 -9 -52 -15 -147
-19 -522 -21 -228 -1 -419 0 -425 2 -10 3 -12 813 -2 830 9 14 832 8 906 -6z"/>
<path d="M36337 23084 c-1 -1 -40 -4 -87 -7 -314 -21 -567 -130 -716 -308
-199 -238 -179 -625 41 -815 45 -39 157 -114 170 -114 3 0 30 -12 61 -26 98
-45 332 -113 444 -130 19 -2 46 -7 60 -10 14 -2 39 -7 55 -10 374 -67 575
-147 662 -262 38 -50 56 -106 58 -182 7 -223 -147 -354 -465 -395 -56 -7 -293
-7 -340 1 -156 25 -251 58 -351 125 -93 63 -169 162 -213 281 l-18 46 -209 0
-209 0 6 -27 c26 -115 32 -135 77 -231 53 -114 128 -205 247 -299 95 -75 304
-166 426 -185 21 -4 46 -8 54 -11 22 -6 107 -16 170 -21 76 -6 330 -5 360 1
13 2 54 7 90 11 170 16 397 97 525 189 123 87 224 229 253 355 21 86 22 100
23 188 2 274 -113 454 -376 585 -107 53 -335 129 -460 153 -22 4 -44 8 -50 10
-5 1 -50 10 -100 19 -49 9 -99 19 -110 21 -11 2 -45 9 -75 14 -44 8 -160 37
-215 54 -62 19 -175 75 -215 106 -77 61 -110 194 -75 304 33 104 115 172 260
215 90 26 135 32 273 31 135 0 193 -6 290 -31 148 -37 257 -120 313 -235 16
-34 29 -67 29 -73 0 -22 41 -27 220 -25 226 2 210 0 205 24 -33 169 -91 283
-206 399 -105 107 -322 210 -496 236 -21 3 -50 8 -63 10 -43 9 -316 24 -323
19z"/>
<path d="M41137 23084 c-1 -1 -40 -4 -87 -7 -192 -13 -406 -80 -542 -171 -219
-145 -316 -362 -283 -631 25 -201 141 -339 378 -450 128 -60 348 -123 524
-151 19 -3 45 -8 57 -10 11 -2 48 -9 81 -15 160 -28 315 -74 421 -125 93 -45
156 -101 191 -171 24 -50 27 -69 27 -148 0 -78 -4 -97 -28 -145 -48 -97 -117
-151 -246 -194 -67 -22 -93 -28 -190 -42 -39 -5 -301 -5 -335 1 -89 15 -184
38 -212 51 -17 8 -34 14 -39 14 -4 0 -40 20 -80 45 -111 70 -193 170 -234 289
l-18 51 -212 2 -211 2 7 -37 c11 -60 64 -203 97 -262 153 -275 431 -429 852
-475 116 -13 446 0 545 20 14 3 35 7 48 10 117 22 273 83 377 147 70 43 195
175 227 239 31 60 70 159 64 159 -3 0 0 15 5 32 10 37 13 217 4 263 -18 88
-28 122 -55 174 -77 154 -258 281 -519 365 -100 33 -230 68 -296 81 -38 7
-169 32 -215 40 -268 47 -448 114 -529 196 -94 94 -94 277 -1 383 54 61 174
118 279 132 25 3 49 8 53 10 12 7 249 6 303 -1 28 -4 77 -13 110 -21 33 -8 68
-17 78 -19 37 -8 137 -69 173 -104 48 -47 89 -112 109 -170 l15 -46 208 0
c200 1 207 1 205 20 -10 93 -54 210 -112 294 -73 108 -179 195 -311 258 -127
61 -338 108 -504 112 -45 2 -103 3 -129 4 -27 1 -49 1 -50 1z"/>
<path d="M17113 23032 l-21 -3 0 -1240 0 -1239 989 0 c544 0 989 3 990 8 0 4
2 14 4 22 1 8 6 35 9 60 4 25 9 52 11 60 3 13 7 36 20 147 2 12 6 27 10 32 8
14 86 12 -837 13 -561 1 -778 4 -781 12 -2 6 -3 182 -3 391 l1 380 690 2 c380
1 709 2 733 2 l42 1 0 170 0 170 -732 2 -733 3 0 330 0 330 773 3 772 2 -2
170 c-1 113 -5 170 -12 171 -33 2 -1905 3 -1923 1z"/>
<path d="M19468 23032 c-15 -3 -16 -117 -16 -1243 l0 -1239 191 0 192 0 -1
868 c-1 477 -4 941 -8 1031 l-7 163 184 -273 c101 -151 198 -294 215 -319 18
-25 40 -56 50 -70 47 -70 522 -745 617 -879 61 -84 130 -182 155 -217 25 -35
83 -118 130 -184 l85 -120 234 3 234 2 1 1225 c1 674 -2 1232 -5 1240 -6 13
-33 15 -166 13 -87 0 -171 -2 -186 -2 l-29 -1 5 -947 c3 -522 8 -966 11 -987
6 -48 3 -45 -69 69 -66 103 -246 356 -511 719 -218 297 -567 779 -721 995
l-111 154 -229 1 c-126 1 -237 0 -245 -2z"/>
<path d="M22030 23032 c-6 -2 -10 -69 -10 -173 l0 -169 465 0 465 0 0 -1070 0
-1070 208 2 207 3 0 1067 0 1068 463 0 462 0 1 33 c3 136 0 299 -5 304 -6 6
-2237 11 -2256 5z"/>
<path d="M24600 23025 c-4 -5 -8 -565 -8 -1242 l0 -1233 989 0 c652 0 989 3
990 10 1 6 2 13 3 18 3 12 16 94 21 132 3 19 7 44 9 56 11 56 16 124 9 125 -4
0 -368 1 -808 2 l-800 2 0 380 c-1 209 1 385 3 391 2 9 191 12 700 12 383 0
712 1 730 1 l32 1 0 170 0 170 -730 0 c-577 0 -730 3 -731 13 -1 6 -2 157 -3
335 l-1 322 771 0 772 0 0 170 c0 152 -1 170 -16 171 -9 0 -446 1 -970 2 -626
1 -957 -1 -962 -8z"/>
<path d="M26977 23030 c-10 -4 -12 -271 -12 -1240 l0 -1235 203 -3 202 -2 1
27 c0 16 0 250 1 521 l0 493 392 -1 c434 -2 505 -9 613 -61 78 -38 124 -90
153 -177 20 -61 23 -89 26 -307 3 -297 9 -390 29 -467 l7 -28 213 0 213 0 -9
38 c-14 64 -20 176 -21 419 0 127 -5 258 -10 290 -34 225 -136 369 -316 443
-44 18 -45 20 -22 26 14 4 61 26 105 48 135 67 225 173 280 331 21 59 30 284
14 355 -66 301 -327 494 -709 526 -96 8 -1334 12 -1353 4z m1323 -344 c233
-50 345 -189 326 -406 -14 -174 -102 -276 -283 -332 -64 -20 -94 -22 -519 -25
l-452 -5 0 389 c0 213 2 390 3 393 2 3 194 5 427 4 346 -2 437 -5 498 -18z"/>
<path d="M29520 23025 c-4 -5 -8 -565 -8 -1242 l0 -1233 208 0 209 0 0 323 c0
177 0 395 0 483 l1 162 458 0 c251 0 471 3 487 6 17 2 50 8 75 11 258 35 487
184 588 381 26 52 61 154 70 207 4 23 7 103 7 177 -1 118 -4 146 -27 220 -93
296 -351 472 -738 506 -135 11 -1320 11 -1330 -1z m1300 -339 c66 -10 169 -46
213 -73 92 -58 142 -135 161 -247 42 -243 -59 -419 -274 -480 -96 -27 -136
-29 -567 -30 l-423 -2 -1 173 c0 95 0 236 0 313 0 77 0 189 0 248 l1 108 423
-2 c232 0 442 -4 467 -8z"/>
<path d="M31961 23030 c-4 -3 -6 -561 -6 -1240 l0 -1235 204 0 204 0 0 518 0
517 376 0 c207 -1 407 -5 444 -9 211 -28 312 -108 353 -282 3 -13 7 -125 9
-249 5 -273 12 -399 26 -456 l11 -44 213 0 214 0 -9 31 c-13 46 -21 200 -25
479 -2 211 -5 256 -23 323 -45 164 -135 279 -269 343 -41 19 -73 37 -71 39 2
2 15 6 29 8 14 3 53 19 85 35 182 92 287 244 310 450 9 83 9 91 1 177 -35 336
-300 554 -721 591 -84 8 -1345 11 -1355 4z m1323 -344 c214 -43 325 -157 332
-341 9 -227 -92 -352 -325 -406 -65 -15 -128 -17 -500 -16 l-426 2 -1 385 c-1
212 0 387 2 390 1 3 191 5 421 4 337 -1 433 -5 497 -18z"/>
<path d="M34528 23032 c-15 -3 -16 -119 -16 -1243 l0 -1239 207 0 206 0 0
1234 c0 679 -3 1238 -7 1242 -7 7 -357 12 -390 6z"/>
<path d="M37958 23032 c-14 -3 -15 -136 -15 -1242 l0 -1240 988 0 987 0 7 29
c3 16 8 42 10 58 2 15 11 74 19 130 9 57 16 109 16 115 0 10 -166 13 -807 13
l-808 0 0 383 c0 247 3 386 10 392 5 4 314 8 685 8 371 0 696 1 723 1 l47 1 0
170 0 170 -730 0 c-401 0 -731 3 -731 8 -1 4 -2 154 -3 335 l-1 327 771 0 771
0 0 165 c0 104 -3 168 -10 172 -10 6 -1897 11 -1929 5z"/>
<path d="M4 18865 l1 -1805 75 -71 c77 -73 361 -344 455 -434 248 -236 395
-377 434 -414 41 -39 313 -298 446 -426 29 -27 123 -117 210 -200 87 -82 179
-170 204 -195 26 -25 125 -119 220 -210 95 -91 197 -187 226 -215 28 -27 125
-120 215 -205 90 -85 220 -209 289 -276 69 -67 145 -139 167 -160 23 -21 115
-109 204 -194 89 -85 187 -178 218 -207 l56 -51 1715 0 1715 -1 -402 402
c-221 221 -713 716 -1094 1099 -381 383 -1693 1700 -2914 2925 -1222 1225
-2264 2271 -2316 2323 -52 52 -101 101 -109 107 -14 11 -16 -174 -15 -1792z"/>
<path d="M27491 16978 c-166 -26 -250 -146 -254 -360 l-1 -98 -68 0 c-58 0
-68 -3 -69 -17 -5 -85 -3 -206 4 -210 4 -2 29 -5 55 -5 26 0 54 -2 63 -4 14
-4 16 -54 17 -477 0 -259 1 -478 1 -484 1 -10 36 -13 141 -13 l140 0 0 489 0
489 68 0 c37 0 75 1 85 1 15 1 17 13 17 116 l0 115 -86 0 -85 0 2 78 c3 120
23 144 116 143 l53 0 -1 114 c-1 109 -2 115 -22 120 -49 10 -125 11 -176 3z"/>
<path d="M21444 16143 l1 -828 138 -3 c75 -1 137 1 138 5 0 4 2 195 3 423 2
228 6 424 9 435 22 81 55 113 124 121 83 10 135 -27 150 -106 2 -8 4 -210 4
-447 1 -393 3 -433 18 -434 20 -1 242 -1 256 0 7 1 10 157 9 484 -1 460 -2
485 -23 547 -41 129 -121 190 -257 198 -114 6 -180 -15 -243 -76 l-49 -47 0
265 c0 146 -1 271 -1 278 -1 9 -36 12 -139 12 l-139 0 1 -827z"/>
<path d="M22532 16830 l0 -140 142 0 141 0 0 140 0 140 -142 0 -141 0 0 -140z"/>
<path d="M26672 16830 l1 -140 141 0 141 0 0 138 0 137 -142 3 -141 3 0 -141z"/>
<path d="M29263 16830 l0 -141 141 3 141 3 0 135 0 135 -142 3 -141 3 1 -141z"/>
<path d="M34124 16143 l1 -828 138 -3 c75 -1 137 1 138 5 0 4 2 195 3 423 2
228 6 425 9 437 26 103 120 151 212 107 65 -31 66 -39 67 -532 0 -320 4 -442
12 -443 14 -1 248 -1 261 0 7 1 10 159 9 484 -1 460 -2 485 -22 547 -42 129
-122 190 -258 198 -114 6 -180 -15 -243 -76 l-49 -47 0 265 c0 146 -1 271 -1
278 -1 9 -36 12 -139 12 l-139 0 1 -827z"/>
<path d="M37872 16830 l0 -140 142 0 141 0 0 138 0 137 -141 3 -142 3 0 -141z"/>
<path d="M33428 16915 c-2 -2 -21 -5 -43 -8 -130 -18 -261 -118 -323 -248 -33
-70 -67 -183 -77 -259 -3 -25 -9 -58 -12 -75 -3 -16 -6 -113 -7 -215 -4 -365
40 -564 155 -694 76 -86 174 -126 319 -131 262 -10 431 122 486 375 25 120 36
111 -128 108 l-141 -3 -4 -30 c-18 -143 -97 -226 -202 -212 -80 10 -128 71
-161 204 -36 147 -43 441 -15 678 8 67 47 173 77 209 50 61 154 76 221 31 29
-18 77 -107 77 -140 0 -12 3 -35 6 -51 l5 -29 127 2 c70 0 133 2 140 2 9 1 11
15 7 54 -24 242 -142 386 -345 423 -37 6 -157 13 -162 9z"/>
<path d="M16885 16103 l0 -788 279 -3 c304 -3 347 3 454 55 78 38 154 127 188
220 42 115 39 287 -6 389 -28 65 -72 117 -131 155 l-51 32 28 15 c73 37 129
135 142 248 21 192 -49 344 -192 414 -90 44 -141 50 -440 50 l-271 0 0 -787z
m537 537 c25 -12 53 -36 68 -58 21 -32 24 -49 25 -122 0 -154 -46 -193 -236
-198 l-116 -4 0 200 0 201 41 3 c91 7 176 -2 218 -22z m-12 -619 c99 -29 147
-122 138 -269 -10 -171 -81 -224 -293 -219 l-90 2 -1 245 c-1 135 0 248 2 252
7 11 196 3 244 -11z"/>
<path d="M25697 16883 c-2 -5 -3 -359 -3 -788 l1 -780 400 -3 401 -2 2 32 c2
18 6 58 10 88 5 31 8 71 8 89 l-1 34 -265 1 -265 1 -2 645 c-1 355 -2 655 -2
668 -1 22 -3 22 -140 22 -77 0 -142 -3 -144 -7z"/>
<path d="M20829 16788 c0 -18 -1 -86 -1 -150 l1 -118 -80 0 -79 0 0 -117 0
-118 77 0 78 0 1 -361 c2 -372 6 -451 23 -497 24 -63 75 -107 144 -124 44 -10
193 -10 237 1 l45 11 1 101 2 102 -66 4 c-107 7 -102 -14 -102 409 l0 358 78
-1 c42 0 84 1 92 1 12 1 15 21 15 116 l1 115 -93 0 -93 0 0 150 0 150 -140 0
-140 0 -1 -32z"/>
<path d="M30916 16670 l1 -150 -79 0 -79 0 3 -117 3 -116 75 -1 75 -1 1 -365
c1 -201 4 -389 8 -418 10 -87 43 -142 105 -176 47 -25 65 -29 150 -31 53 -1
116 3 141 9 l45 11 1 105 2 105 -57 -3 c-45 -3 -62 1 -81 16 l-25 20 -3 366
-3 365 85 -1 c47 -1 89 2 93 6 4 4 8 57 8 117 l1 109 -93 0 -93 0 0 150 0 150
-142 0 -143 0 1 -150z"/>
<path d="M39369 16798 c0 -13 -1 -80 -1 -150 l0 -128 -79 0 -79 0 0 -115 c0
-131 -12 -116 103 -117 l57 -1 -1 -386 c-1 -389 4 -458 36 -508 31 -47 70 -74
130 -90 40 -11 191 -10 235 1 l45 11 1 101 2 102 -66 4 c-107 7 -102 -14 -102
409 l0 358 92 -2 93 -2 0 118 1 117 -93 0 -93 0 0 150 0 150 -140 0 c-138 0
-140 0 -141 -22z"/>
<path d="M30286 16538 c-76 -10 -131 -38 -178 -91 l-38 -42 -1 33 c-1 17 -3
37 -4 42 -1 6 -3 17 -4 25 -1 13 -23 15 -135 15 l-134 0 0 -605 1 -605 138 0
c126 0 139 2 139 18 1 9 2 204 3 432 3 389 4 417 22 455 37 73 112 102 193 74
22 -7 37 -24 53 -56 21 -44 22 -54 22 -484 l0 -440 141 3 141 3 0 470 c-1 419
-2 477 -18 536 -43 157 -172 239 -341 217z"/>
<path d="M18482 16524 c-29 -7 -68 -24 -87 -37 -40 -27 -105 -105 -105 -126 0
-21 -15 -3 -16 20 -1 10 -2 46 -3 79 l-1 60 -134 0 -134 0 0 -592 c0 -326 2
-600 4 -608 3 -12 26 -15 134 -14 72 0 133 4 137 7 3 4 7 170 8 369 1 345 2
365 22 409 39 86 109 127 226 132 l57 2 0 158 0 157 -27 -1 c-16 0 -52 -7 -81
-15z"/>
<path d="M19034 16530 c-134 -28 -248 -134 -299 -279 -15 -43 -20 -63 -31
-130 -3 -18 -8 -43 -10 -55 -6 -25 -6 -283 0 -311 2 -11 7 -45 11 -75 28 -205
137 -343 300 -378 219 -48 410 19 503 177 23 39 62 157 62 187 0 9 -38 12
-134 12 l-135 0 -16 -52 c-23 -69 -61 -99 -134 -104 -91 -6 -144 42 -169 153
-11 48 -15 95 -13 142 l1 23 303 2 302 3 -1 125 c0 137 -6 189 -30 271 -42
146 -116 231 -239 274 -57 20 -209 28 -271 15z m190 -245 c35 -23 67 -99 73
-174 l5 -66 -158 1 c-88 1 -163 2 -168 3 -10 1 0 92 16 141 26 83 81 123 160
115 26 -2 58 -11 72 -20z"/>
<path d="M20025 16526 c-155 -38 -253 -146 -271 -299 l-7 -57 137 0 136 0 0
25 c0 38 25 91 52 109 52 34 137 25 178 -19 21 -22 24 -36 28 -133 l4 -107
-83 -1 c-284 -2 -434 -96 -487 -304 -2 -8 -3 -53 -4 -100 0 -98 24 -175 75
-242 105 -135 356 -148 480 -24 l37 37 0 -28 c0 -15 3 -38 6 -51 6 -22 9 -23
133 -20 l126 3 -4 95 c-1 52 -4 271 -5 485 -2 373 -3 392 -24 445 -34 86 -108
151 -207 182 -48 15 -244 18 -300 4z m261 -760 c-8 -142 -27 -194 -79 -226
-36 -23 -112 -27 -152 -8 -64 29 -91 142 -52 219 35 68 122 101 245 90 l42 -3
-4 -72z"/>
<path d="M23481 16522 c-27 -9 -64 -35 -93 -63 -42 -42 -48 -45 -49 -26 -1 12
-2 27 -4 32 -1 6 -3 20 -3 33 -2 22 -4 22 -136 22 l-134 0 0 -605 1 -605 139
0 c103 0 138 3 139 13 0 6 1 188 1 402 1 441 7 492 56 536 51 46 140 51 188
11 43 -36 46 -69 46 -527 l0 -435 142 0 141 0 -2 473 c-1 259 -3 484 -6 498
-18 112 -94 212 -182 241 -60 20 -187 20 -244 0z"/>
<path d="M24417 16529 c-80 -19 -144 -66 -201 -148 -33 -47 -82 -185 -92 -256
-3 -27 -8 -59 -10 -70 -5 -28 -6 -286 -1 -310 3 -11 8 -40 12 -65 12 -80 35
-146 69 -203 39 -65 74 -98 132 -127 54 -27 76 -31 151 -32 88 0 157 26 210
78 23 24 43 38 44 31 1 -18 -2 -84 -7 -152 -10 -128 -78 -197 -189 -190 -66 4
-103 27 -126 79 l-18 41 -132 0 c-102 1 -132 -2 -137 -13 -10 -26 21 -127 54
-179 63 -98 176 -151 339 -157 241 -9 397 79 455 258 34 106 37 155 38 772 1
339 4 620 8 625 3 5 -53 9 -134 9 l-140 0 -7 -46 -7 -46 -16 23 c-27 39 -54
58 -106 74 -54 16 -129 18 -189 4z m247 -256 c54 -39 70 -115 69 -338 0 -221
-24 -317 -87 -359 -48 -31 -130 -24 -173 16 -105 98 -103 559 3 665 46 46 137
54 188 16z"/>
<path d="M28080 16526 c-182 -49 -297 -209 -325 -451 -6 -58 -8 -300 -2 -330
3 -11 8 -40 11 -65 45 -295 224 -425 531 -385 167 21 300 162 329 347 l6 38
-135 -1 -134 -1 -7 -34 c-3 -19 -23 -52 -43 -75 -33 -37 -41 -41 -96 -46 -52
-4 -65 -2 -94 19 -60 40 -80 91 -88 220 l-5 78 303 2 304 3 -1 130 c-1 136 -5
178 -28 260 -41 149 -116 236 -241 280 -62 22 -222 28 -285 11z m204 -241 c37
-24 65 -91 72 -170 l6 -70 -158 1 c-88 1 -163 2 -168 3 -11 1 -2 84 15 141 15
49 66 106 101 113 41 7 107 -2 132 -18z"/>
<path d="M31823 16530 c-175 -35 -302 -186 -339 -405 -12 -74 -14 -97 -14
-205 -2 -249 43 -410 146 -520 144 -154 468 -152 612 4 75 81 123 203 140 356
13 118 7 309 -13 404 -22 105 -81 222 -141 278 -89 82 -244 117 -391 88z m167
-245 c69 -36 100 -147 100 -365 -1 -191 -6 -231 -46 -315 -29 -62 -74 -90
-132 -83 -81 11 -121 65 -147 199 -19 101 -13 363 10 439 19 62 57 117 89 130
33 14 94 11 126 -5z"/>
<path d="M35495 16527 c-274 -71 -386 -369 -320 -854 13 -97 59 -201 117 -268
63 -71 148 -106 294 -119 62 -6 169 15 229 44 124 61 191 158 219 317 l5 32
-134 -1 c-74 0 -135 -4 -136 -7 -8 -67 -41 -114 -92 -136 -53 -22 -108 -19
-148 8 -56 37 -81 105 -91 252 l-3 40 300 3 c222 2 301 5 307 15 9 16 2 247
-10 317 -32 178 -114 290 -250 343 -61 24 -218 31 -287 14z m187 -237 c51 -24
85 -106 84 -195 l-1 -50 -160 0 -160 1 -1 40 c-1 98 57 205 118 217 36 7 90 1
120 -13z"/>
<path d="M36669 16526 c-54 -19 -105 -53 -134 -89 -23 -30 -25 -31 -26 -9 -1
12 -3 31 -4 42 -1 11 -3 27 -4 35 -1 13 -23 15 -135 15 l-134 0 0 -605 -1
-605 140 0 c125 0 139 2 140 18 0 9 1 202 2 427 2 396 3 412 24 457 28 60 62
82 129 83 38 0 58 -5 74 -20 49 -44 50 -57 50 -526 l0 -439 140 0 140 0 1 413
c1 226 3 424 4 439 2 14 13 45 25 68 47 91 182 94 225 4 18 -36 19 -70 20
-479 l0 -440 139 0 139 0 0 455 c0 481 -3 533 -37 611 -23 55 -63 97 -120 127
-45 24 -62 27 -151 26 -125 0 -184 -22 -251 -97 -24 -27 -46 -48 -47 -46 -2 2
-15 23 -30 46 -42 66 -103 96 -201 99 -47 2 -96 -3 -117 -10z"/>
<path d="M38615 16530 c-71 -20 -87 -27 -139 -65 -147 -106 -177 -358 -58
-491 51 -56 119 -95 287 -164 98 -40 143 -72 161 -116 27 -64 9 -143 -38 -173
-38 -24 -124 -22 -161 3 -38 26 -77 90 -77 128 l0 26 -122 1 c-154 1 -157 0
-152 -45 9 -100 63 -210 125 -257 45 -33 110 -65 145 -72 16 -2 40 -7 54 -10
30 -7 165 -7 200 0 221 42 323 167 315 387 -7 184 -92 269 -374 379 -53 21
-99 47 -123 70 -33 31 -38 42 -38 82 0 37 6 53 28 79 25 27 36 31 79 32 32 0
59 -6 77 -18 30 -19 57 -73 58 -117 l1 -28 134 0 134 0 -2 47 c-8 155 -108
278 -256 316 -64 17 -206 20 -258 6z"/>
<path d="M40459 16525 c-25 -8 -64 -27 -86 -42 -45 -30 -103 -98 -103 -119 0
-7 -4 -15 -8 -18 -4 -2 -8 18 -9 45 0 27 -1 67 -2 89 l-1 40 -134 0 -134 0 0
-597 c0 -329 4 -602 9 -608 8 -11 255 -12 266 -1 3 3 6 154 6 336 0 181 4 353
9 382 13 73 41 119 92 151 42 26 139 47 185 40 21 -3 21 1 21 157 l0 160 -32
-1 c-18 0 -54 -7 -79 -14z"/>
<path d="M22532 15915 l0 -605 139 0 139 0 1 38 c0 20 1 292 2 605 l2 567
-141 0 -142 0 0 -605z"/>
<path d="M26672 15915 l0 -605 139 0 139 0 1 48 c0 50 0 1115 -1 1145 0 15
-13 17 -139 17 l-139 0 0 -605z"/>
<path d="M29263 15915 l-1 -605 139 0 c117 0 139 2 140 15 0 8 1 281 2 605 l2
590 -141 0 -141 0 0 -605z"/>
<path d="M37872 15915 l0 -605 139 0 c104 0 139 3 140 13 0 13 0 1150 -1 1180
0 15 -13 17 -139 17 l-138 0 -1 -605z"/>
<path d="M40670 16516 c0 -4 148 -503 226 -766 19 -63 36 -122 38 -130 2 -8
25 -84 50 -169 41 -138 45 -158 35 -198 -11 -54 -24 -80 -53 -112 -30 -33 -62
-43 -133 -42 l-63 1 0 -120 0 -120 43 -1 c184 -6 262 15 331 92 59 66 99 152
146 318 44 154 268 965 275 996 3 11 18 67 35 125 16 58 30 111 30 117 0 10
-34 13 -138 13 l-139 0 -21 -87 c-56 -228 -149 -650 -159 -718 -7 -54 -9 -54
-18 2 -3 26 -15 85 -26 130 -10 44 -21 96 -24 115 -3 18 -11 51 -16 73 -6 22
-12 47 -14 55 -2 8 -15 67 -30 130 -24 103 -45 194 -62 273 l-5 27 -154 0
c-85 0 -154 -2 -154 -4z"/>
</g>
</svg>
