<svg id="Capa_1" enable-background="new 0 0 503.345 503.345" height="512" viewBox="0 0 503.345 503.345" width="512" xmlns="http://www.w3.org/2000/svg"><g><path d="m411.774 127.976h36.811c15.896 0 28.783 12.887 28.783 28.783v314.716h-451.391v-314.716c0-15.896 12.886-28.783 28.783-28.783h36.811z" fill="#e5e1e5"/><path d="m136.163 127.976h-44.592-36.811c-15.896 0-28.783 12.887-28.783 28.783v314.716h81.403v-314.716c0-15.897 12.886-28.783 28.783-28.783z" fill="#d7d0d6"/><path d="m166.858 288.929c4.996 3.588 8.895 8.589 11.274 14.461l10.808 26.676 16.392 37.345h88.623l20.083-36.277 11.239-27.737c2.36-5.826 6.444-10.962 11.809-14.852 37.703-27.333 60.211-71.422 60.211-117.938 0-14.828-2.234-29.142-6.373-42.631h-278.437c-4.032 13.134-6.204 26.893-6.363 40.949-.538 47.444 22.166 92.305 60.734 120.004z" fill="#d7d0d6"/><g><path d="m446.967 168.372v237.905c0 5.963-4.834 10.797-10.797 10.797h-369.798c-5.963 0-10.797-4.834-10.797-10.797v-237.905c0-5.963 4.834-10.797 10.797-10.797h369.798c5.963-.001 10.797 4.833 10.797 10.797z" fill="#d4f2f6"/></g><path d="m396.694 157.574h-289.314-.673-40.335c-5.963 0-10.797 4.834-10.797 10.797v237.905c0 5.963 4.834 10.797 10.797 10.797h41.008v-208.04c0-2.266 3.205-2.676 3.797-.489 8.659 32.014 28.113 60.584 55.682 80.384 4.996 3.588 8.895 8.589 11.274 14.461l10.808 26.676 6.584 15-1.558 6.375v3.499c0 31.685 25.16 58.125 56.841 58.608 32.246.492 58.636-25.596 58.636-57.731v-2l-.668-13.179 5.262-9.505 11.239-27.737c2.36-5.826 6.444-10.962 11.809-14.852 37.703-27.333 60.211-71.422 60.211-117.938 0-4.393-.219-8.735-.603-13.031z" fill="#a6e7f0"/><path d="m249.905 50.028c-65.059.949-118.046 54.12-118.783 119.181-.464 40.955 19.491 77.275 50.318 99.413 8.898 6.39 15.749 15.227 19.863 25.38l10.674 26.344 9.684 22.064h57.559l12.214-22.064 10.672-26.339c4.184-10.326 11.285-19.164 20.306-25.703 30.226-21.913 49.885-57.51 49.885-97.698 0-67.2-54.966-121.562-122.392-120.578z" fill="#fee45a"/><path d="m239.042 294.002c-4.114-10.153-10.965-18.99-19.863-25.38-30.827-22.138-50.782-58.458-50.318-99.413.671-59.28 44.722-108.689 101.756-117.72-6.736-1.061-13.655-1.564-20.712-1.461-65.059.949-118.046 54.12-118.783 119.181-.464 40.955 19.491 77.275 50.318 99.413 8.898 6.39 15.749 15.227 19.863 25.38l10.674 26.344 9.684 22.064h37.739l-9.684-22.064z" fill="#fedf30"/><path d="m283.784 341.441h-61.639l-3.179 13.01v1.366c0 18.081 14.658 32.738 32.739 32.738 18.081 0 32.739-14.657 32.739-32.738v-1.366z" fill="#d7d0d6"/><path d="m251.706 355.817v-1.366l3.179-13.01h-32.739l-3.179 13.01v1.366c0 18.081 14.658 32.738 32.739 32.738 5.965 0 11.562-1.598 16.379-4.385-9.783-5.661-16.379-16.237-16.379-28.353z" fill="#c9bfc8"/><path d="m287.537 320.346h-71.663c-9.418 0-17.052 7.635-17.052 17.052 0 9.418 7.635 17.052 17.052 17.052h71.663c9.418 0 17.052-7.635 17.052-17.052.001-9.417-7.634-17.052-17.052-17.052z" fill="#e5e1e5"/><path d="m231.56 337.398c0-9.418 7.635-17.052 17.052-17.052h-32.739c-9.418 0-17.052 7.635-17.052 17.052 0 9.418 7.635 17.052 17.052 17.052h32.739c-9.417.001-17.052-7.634-17.052-17.052z" fill="#d7d0d6"/><path d="m491.55 447.475h-479.755c-4.697 0-8.506 3.808-8.506 8.506v25.203c0 12.239 9.922 22.161 22.161 22.161h452.444c12.239 0 22.161-9.922 22.161-22.161v-25.203c0-4.698-3.808-8.506-8.505-8.506z" fill="#c9bfc8"/><path d="m84.693 481.184v-25.204c0-4.697 3.808-8.505 8.506-8.505h-81.404c-4.697 0-8.506 3.808-8.506 8.505v25.203c0 12.239 9.922 22.161 22.161 22.161h81.403c-12.239.001-22.16-9.921-22.16-22.16z" fill="#baafb9"/><path d="m190.241 159.004h-2.56c-13.721 0-24.845 11.123-24.845 24.845 0 13.721 11.123 24.845 24.845 24.845 1.414 0 2.56 1.146 2.56 2.56v14.324c0 12.744 10.331 23.076 23.076 23.076 12.744 0 23.076-10.331 23.076-23.076v-45.228-39.193c0-16.334-13.242-29.576-29.576-29.576-16.334 0-29.576 13.242-29.576 29.576 0 10.354 8.394 18.748 18.748 18.748" fill="#fece85"/><path d="m314.104 159.004h2.56c13.721 0 24.845 11.123 24.845 24.845 0 13.721-11.123 24.845-24.845 24.845-1.414 0-2.56 1.146-2.56 2.56v14.324c0 12.744-10.331 23.076-23.076 23.076-12.744 0-23.076-10.331-23.076-23.076v-45.228-39.193c0-16.334 13.242-29.576 29.576-29.576 16.334 0 29.576 13.242 29.576 29.576 0 10.354-8.394 18.748-18.748 18.748" fill="#fece85"/><g><path d="m110.062 253.538h-25.974c-4.142 0-7.5-3.357-7.5-7.5s3.358-7.5 7.5-7.5h25.974c4.142 0 7.5 3.357 7.5 7.5s-3.358 7.5-7.5 7.5z" fill="#a6e7f0"/></g><path d="m107.38 238.538h-23.292c-4.142 0-7.5 3.357-7.5 7.5s3.358 7.5 7.5 7.5h23.292z" fill="#6bd9e7"/><g><path d="m149.57 294.527h-65.482c-4.142 0-7.5-3.357-7.5-7.5s3.358-7.5 7.5-7.5h65.482c4.142 0 7.5 3.357 7.5 7.5s-3.358 7.5-7.5 7.5z" fill="#a6e7f0"/></g><path d="m107.38 279.527h-23.292c-4.142 0-7.5 3.357-7.5 7.5s3.358 7.5 7.5 7.5h23.292z" fill="#6bd9e7"/><g><path d="m162.435 335.517h-78.347c-4.142 0-7.5-3.357-7.5-7.5s3.358-7.5 7.5-7.5h78.347c4.142 0 7.5 3.357 7.5 7.5s-3.358 7.5-7.5 7.5z" fill="#a6e7f0"/></g><path d="m107.38 320.517h-23.292c-4.142 0-7.5 3.357-7.5 7.5s3.358 7.5 7.5 7.5h23.292z" fill="#6bd9e7"/><g><path d="m177.739 376.507h-93.651c-4.142 0-7.5-3.357-7.5-7.5s3.358-7.5 7.5-7.5h93.651c4.142 0 7.5 3.357 7.5 7.5s-3.358 7.5-7.5 7.5z" fill="#a6e7f0"/></g><path d="m107.38 361.507h-23.292c-4.142 0-7.5 3.357-7.5 7.5s3.358 7.5 7.5 7.5h23.292z" fill="#6bd9e7"/><g><path d="m418.923 253.939h-25.974c-4.142 0-7.5-3.357-7.5-7.5s3.358-7.5 7.5-7.5h25.974c4.142 0 7.5 3.357 7.5 7.5s-3.358 7.5-7.5 7.5z" fill="#a6e7f0"/></g><g><path d="m418.923 294.929h-65.483c-4.142 0-7.5-3.357-7.5-7.5s3.358-7.5 7.5-7.5h65.483c4.142 0 7.5 3.357 7.5 7.5s-3.358 7.5-7.5 7.5z" fill="#a6e7f0"/></g><g><path d="m418.923 335.918h-78.347c-4.142 0-7.5-3.357-7.5-7.5s3.358-7.5 7.5-7.5h78.347c4.142 0 7.5 3.357 7.5 7.5s-3.358 7.5-7.5 7.5z" fill="#a6e7f0"/></g><g><path d="m418.923 376.907h-93.651c-4.142 0-7.5-3.357-7.5-7.5s3.358-7.5 7.5-7.5h93.651c4.142 0 7.5 3.357 7.5 7.5s-3.358 7.5-7.5 7.5z" fill="#a6e7f0"/></g><g><path d="m251.672 25.118c-4.142 0-7.5-3.357-7.5-7.5v-10.118c0-4.143 3.358-7.5 7.5-7.5s7.5 3.357 7.5 7.5v10.118c0 4.143-3.358 7.5-7.5 7.5z" fill="#fee45a"/></g><g><path d="m176.024 35.521c-3.289 0-6.306-2.18-7.225-5.504l-2.696-9.753c-1.104-3.992 1.238-8.123 5.23-9.227 3.991-1.107 8.124 1.237 9.228 5.23l2.696 9.753c1.104 3.992-1.238 8.123-5.23 9.227-.668.186-1.341.274-2.003.274z" fill="#fee45a"/></g><g><path d="m323.786 35.521c-.662 0-1.334-.088-2.003-.273-3.992-1.104-6.334-5.234-5.23-9.227l2.696-9.753c1.104-3.993 5.233-6.339 9.228-5.23 3.992 1.104 6.334 5.234 5.23 9.227l-2.696 9.753c-.92 3.323-3.937 5.503-7.225 5.503z" fill="#fee45a"/></g></g></svg>